<!DOCTYPE svg PUBLIC "-//W3C//DTD SVG 1.1//EN" "http://www.w3.org/Graphics/SVG/1.1/DTD/svg11.dtd">
<!-- Uploaded to: SVG Repo, www.svgrepo.com, Transformed by: SVG Repo Mixer Tools -->
<svg height="800px" width="800px" version="1.1" id="Capa_1" xmlns="http://www.w3.org/2000/svg" xmlns:xlink="http://www.w3.org/1999/xlink" viewBox="0 0 26.549 26.549" xml:space="preserve" fill="#279b99">
<g id="SVGRepo_bgCarrier" stroke-width="0"/>
<g id="SVGRepo_tracerCarrier" stroke-linecap="round" stroke-linejoin="round"/>
<g id="SVGRepo_iconCarrier"> <g> <g> <circle style="fill:#279b99;" cx="13.672" cy="2.344" r="2.344"/> <path style="fill:#279b99;" d="M23.005,9.474c0.007-0.012,0.016-0.021,0.021-0.032C23.027,9.416,23.021,9.431,23.005,9.474z"/> <path style="fill:#279b99;" d="M23.006,9.473c-0.315,0.532-1.446,0.75-1.877,0.758c2.172-1.234,2.787-3.694,2.787-3.694 c-0.585,0.796-1.767,1.157-2.439,1.157c-0.622,0-1.104-0.164-1.104-0.164c-0.578-0.299-1.148-0.419-1.688-0.419 c-0.123,0-0.244,0.007-0.363,0.019l3.908-4.013V3.115c0.002-0.002,0.002-0.005,0.006-0.006c0.389-0.386,0.389-1.012,0-1.401 c-0.388-0.385-1.015-0.385-1.398,0.004c0,0-0.003,0.003-0.008,0.006l-3.699,3.727H9.937L6.238,1.718 C6.235,1.715,6.233,1.713,6.233,1.713c-0.39-0.39-1.016-0.39-1.402-0.005c-0.387,0.39-0.387,1.016,0,1.401 C4.833,3.11,4.836,3.113,4.837,3.115v0.002l4.018,4.126C8.539,7.162,8.21,7.111,7.867,7.111c-0.541,0-1.111,0.12-1.69,0.419 c0,0-0.479,0.164-1.102,0.164c-0.673,0-1.856-0.361-2.442-1.157c0,0,0.616,2.459,2.79,3.694c-0.433-0.009-1.562-0.227-1.877-0.757 c0.112,0.332,0.689,2.411,2.204,3.112c-0.162,0.026-0.438,0.088-0.725,0.088c-0.35,0-0.716-0.093-0.905-0.456 c0,0-0.094,1.972,2.724,1.972c0.22,0,0.456-0.014,0.713-0.037c0,0,1.608-0.258,2.999-1.57l-0.007,12.63 c0,0.738,0.599,1.336,1.338,1.336c0.736,0,1.335-0.598,1.335-1.336l-0.001-10.84h0.599v10.854l0.013,0.003 c0.008,0.729,0.6,1.313,1.326,1.313c0.731,0,1.328-0.594,1.328-1.326l-0.002-12.222c1.252,0.953,2.51,1.15,2.51,1.15 c0.256,0.025,0.492,0.041,0.713,0.041c2.818,0,2.724-1.972,2.724-1.972c-0.188,0.363-0.554,0.458-0.903,0.458 c-0.287,0-0.562-0.063-0.726-0.09C22.316,11.883,22.894,9.803,23.006,9.473z M10.556,12.202c-1.312,1.35-2.919,1.662-3.034,1.683 c-0.238,0.023-0.465,0.035-0.678,0.035c-0.932,0-1.614-0.22-2.029-0.657c-0.119-0.125-0.377-0.429-0.438-0.555 c0.135,0.041,0.464,0.234,0.649,0.234c0.254,0,0.492-0.041,0.666-0.072c0.037-0.008,0.071-0.015,0.102-0.019l0.863-0.139 l-0.794-0.368c-1.258-0.583-1.722-1.629-1.914-2.288c0.561,0.283,1.247,0.439,1.47,0.442l1.053,0.021l-0.917-0.52 c-1.21-0.688-2.143-1.901-2.42-2.634c0.448,0.281,1.328,0.597,1.94,0.597c0.66,0,1.167-0.172,1.189-0.179l0.018-0.006l0.017-0.011 c0.5-0.257,1.027-0.389,1.568-0.389c0.489,0,0.954,0.108,1.379,0.269l1.312,1.346L10.556,12.202z M15.404,8.225 c-0.127,0.785-1.567,2.044-1.629,2.098c-0.025,0.024-0.062,0.035-0.098,0.035s-0.069-0.011-0.099-0.035 c-0.062-0.054-1.515-1.312-1.645-2.098c-0.05-0.323-0.004-0.583,0.142-0.774c0.145-0.19,0.377-0.303,0.71-0.339 c0.026-0.001,0.054-0.003,0.082-0.003c0.287,0,0.612,0.139,0.802,0.402c0.189-0.264,0.515-0.402,0.803-0.402 c0.029,0,0.059,0.002,0.085,0.003c0.329,0.036,0.562,0.148,0.709,0.339C15.411,7.642,15.457,7.902,15.404,8.225z M20.759,12.852 c0.03,0.006,0.062,0.012,0.102,0.019c0.174,0.031,0.408,0.072,0.666,0.072c0.188,0,0.516-0.193,0.647-0.235 c-0.062,0.127-0.317,0.431-0.438,0.556c-0.416,0.438-1.099,0.658-2.027,0.658c-0.215,0-0.439-0.012-0.68-0.037 c-0.103-0.016-1.354-0.259-2.545-1.232V9.016l1.53-1.571c0.216-0.041,0.438-0.065,0.669-0.065c0.54,0,1.066,0.132,1.566,0.389 l0.018,0.012l0.02,0.005c0.021,0.007,0.529,0.179,1.189,0.179c0.611,0,1.49-0.315,1.938-0.597 c-0.276,0.733-1.207,1.944-2.418,2.634l-0.918,0.521l1.056-0.021c0.222-0.004,0.905-0.159,1.469-0.443 c-0.194,0.658-0.657,1.703-1.913,2.285l-0.795,0.369L20.759,12.852z"/> <path style="fill:#279b99;" d="M3.525,9.439c0.006,0.013,0.014,0.022,0.021,0.035C3.53,9.43,3.524,9.415,3.525,9.439z"/> </g> </g> </g>
</svg>